<svg width="1920" height="520" viewBox="0 0 1920 520" fill="none" xmlns="http://www.w3.org/2000/svg">
  <rect y="300" width="1920" height="220" fill="#040507"/>
  <rect x="40" y="210" width="110" height="310" fill="#050607"/>
  <rect x="180" y="250" width="120" height="270" fill="#030405"/>
  <rect x="330" y="180" width="140" height="340" fill="#050607"/>
  <rect x="500" y="230" width="90" height="290" fill="#020304"/>
  <rect x="620" y="155" width="135" height="365" fill="#050607"/>
  <rect x="790" y="245" width="105" height="275" fill="#030405"/>
  <rect x="920" y="170" width="150" height="350" fill="#050607"/>
  <rect x="1110" y="225" width="95" height="295" fill="#030405"/>
  <rect x="1235" y="140" width="165" height="380" fill="#050607"/>
  <rect x="1435" y="255" width="120" height="265" fill="#020304"/>
  <rect x="1585" y="200" width="130" height="320" fill="#040506"/>
  <rect x="1745" y="235" width="125" height="285" fill="#030405"/>
  <polygon points="330,180 400,120 470,180" fill="#050607"/>
  <polygon points="620,155 687,95 755,155" fill="#050607"/>
  <polygon points="920,170 995,110 1070,170" fill="#050607"/>
  <polygon points="1235,140 1317,80 1400,140" fill="#050607"/>
  <rect y="0" width="1920" height="360" fill="url(#fade)"/>
  <defs>
    <linearGradient id="fade" x1="960" y1="0" x2="960" y2="360" gradientUnits="userSpaceOnUse">
      <stop stop-color="#000000" stop-opacity="0"/>
      <stop offset="1" stop-color="#000000" stop-opacity="0.35"/>
    </linearGradient>
  </defs>
</svg>
